<?xml version="1.0" encoding="utf-8"?>
<!-- Generator: Adobe Illustrator 25.4.1, SVG Export Plug-In . SVG Version: 6.00 Build 0)  -->
<svg version="1.1" id="Layer_1" xmlns="http://www.w3.org/2000/svg" xmlns:xlink="http://www.w3.org/1999/xlink" x="0px" y="0px"
	 viewBox="0 0 36 60" style="enable-background:new 0 0 36 60;" xml:space="preserve">
<style type="text/css">
	.st0{fill:#858585;}
</style>
<g>
	<path class="st0" d="M34,1c0.55,0,1,0.45,1,1v56c0,0.55-0.45,1-1,1H2c-0.55,0-1-0.45-1-1V2c0-0.55,0.45-1,1-1H34 M34,0H2
		C0.9,0,0,0.9,0,2v56c0,1.1,0.9,2,2,2h32c1.1,0,2-0.9,2-2V2C36,0.9,35.1,0,34,0L34,0z"/>
</g>
<g>
	<circle class="st0" cx="18" cy="51" r="4.5"/>
</g>
<g>
	<rect x="10.42" y="11" class="st0" width="4.33" height="4.33"/>
	<rect x="21.25" y="11" class="st0" width="4.33" height="4.33"/>
	<rect x="5" y="16.42" class="st0" width="4.33" height="4.33"/>
	<rect x="10.42" y="16.42" class="st0" width="4.33" height="4.33"/>
	<rect x="15.83" y="16.42" class="st0" width="4.33" height="4.33"/>
	<rect x="21.25" y="16.42" class="st0" width="4.33" height="4.33"/>
	<rect x="26.67" y="16.42" class="st0" width="4.33" height="4.33"/>
	<rect x="5" y="21.83" class="st0" width="4.33" height="4.33"/>
	<rect x="10.42" y="21.83" class="st0" width="4.33" height="4.33"/>
	<rect x="15.83" y="21.83" class="st0" width="4.33" height="4.33"/>
	<rect x="21.25" y="21.83" class="st0" width="4.33" height="4.33"/>
	<rect x="26.67" y="21.83" class="st0" width="4.33" height="4.33"/>
	<rect x="10.42" y="27.25" class="st0" width="4.33" height="4.33"/>
	<rect x="15.83" y="27.25" class="st0" width="4.33" height="4.33"/>
	<rect x="21.25" y="27.25" class="st0" width="4.33" height="4.33"/>
	<rect x="15.83" y="32.67" class="st0" width="4.33" height="4.33"/>
</g>
</svg>
